<svg width="24" height="25" viewBox="0 0 24 25" fill="none" xmlns="http://www.w3.org/2000/svg">
<path d="M12.6144 21.3308H3.99346C3.44463 21.3308 3 20.8823 3 20.3292V4.18514C3 3.63189 3.4447 3.18356 3.99346 3.18356H20.0066C20.5552 3.18356 21 3.63189 21 4.18514V20.3292C21 20.8823 20.5552 21.3308 20.0066 21.3308H15.4197V14.3032H17.7594L18.1098 11.5644H15.4197V9.81587C15.4197 9.02293 15.6381 8.48256 16.766 8.48256L18.2045 8.48193V6.03234C17.9557 5.99896 17.1018 5.92439 16.1083 5.92439C14.0343 5.92439 12.6144 7.20073 12.6144 9.54463V11.5644H10.2687V14.3032H12.6144V21.3308Z" fill="#5446F5"/>
</svg>
