<svg width="18" height="12" viewBox="0 0 18 12" fill="none" xmlns="http://www.w3.org/2000/svg">
<path fill-rule="evenodd" clip-rule="evenodd" d="M8.80782 6.85653C7.91347 6.85653 5.71701 6.85939 5.71701 6.85939V4.66335H11.2076C11.59 7.32056 10.4365 11.3064 5.71701 11.3064C2.55958 11.3064 0 8.82374 0 5.76137C0 2.69894 2.55958 0.21637 5.71701 0.21637C7.19856 0.21637 8.54846 0.762964 9.5641 1.65961C8.77707 2.38049 8.52475 2.6553 8.31037 2.88879C8.19885 3.01025 8.0976 3.12053 7.93668 3.2766C7.34919 2.80539 6.70871 2.46731 5.71701 2.46731C3.84132 2.46731 2.37737 3.94211 2.37737 5.76137C2.37737 7.58062 3.84132 9.05543 5.71701 9.05543C7.57045 9.05543 8.32351 8.28017 8.80782 6.85653ZM16.0187 2.8515V4.77305H17.9999V6.14559H16.0187V8.12204H14.6037V6.14559H12.5659V4.77305H14.6037V2.8515H16.0187Z" fill="#5446F5"/>
</svg>
