<svg width="18" height="19" viewBox="0 0 18 19" fill="none" xmlns="http://www.w3.org/2000/svg">
<path fill-rule="evenodd" clip-rule="evenodd" d="M9.00002 0.0245667C6.55575 0.0245667 6.24926 0.0350119 5.28931 0.0791698C4.33137 0.123219 3.67712 0.276619 3.10466 0.500938C2.51283 0.732785 2.01092 1.04304 1.51055 1.54747C1.01021 2.05194 0.702472 2.55795 0.472506 3.15462C0.250008 3.73177 0.0978521 4.39137 0.0541601 5.35715C0.0103605 6.32494 0 6.63394 0 9.09821C0 11.5624 0.0103605 11.8714 0.0541601 12.8392C0.0978521 13.805 0.250008 14.4646 0.472506 15.0418C0.702472 15.6384 1.01021 16.1444 1.51055 16.6489C2.01092 17.1533 2.51283 17.4636 3.10466 17.6955C3.67712 17.9198 4.33137 18.0732 5.28931 18.1172C6.24926 18.1614 6.55575 18.1718 9.00002 18.1718C11.4443 18.1718 11.7507 18.1614 12.7107 18.1172C13.6686 18.0732 14.3229 17.9198 14.8953 17.6955C15.4872 17.4636 15.9891 17.1533 16.4895 16.6489C16.9898 16.1444 17.2975 15.6384 17.5275 15.0418C17.75 14.4646 17.9021 13.805 17.9458 12.8392C17.9896 11.8714 18 11.5624 18 9.09821C18 6.63394 17.9896 6.32494 17.9458 5.35715C17.9021 4.39137 17.75 3.73177 17.5275 3.15462C17.2975 2.55795 16.9898 2.05194 16.4895 1.54747C15.9891 1.04304 15.4872 0.732785 14.8953 0.500938C14.3229 0.276619 13.6686 0.123219 12.7107 0.0791698C11.7507 0.0350119 11.4443 0.0245667 9.00002 0.0245667ZM9.00002 1.65942C11.4031 1.65942 11.6878 1.66868 12.6368 1.71233C13.5143 1.75267 13.9908 1.90049 14.308 2.02475C14.7281 2.18935 15.0279 2.38598 15.3428 2.70351C15.6578 3.02101 15.8528 3.32327 16.0161 3.7468C16.1393 4.06653 16.2859 4.54698 16.3259 5.43165C16.3692 6.38843 16.3784 6.67542 16.3784 9.09819C16.3784 11.5209 16.3692 11.8079 16.3259 12.7647C16.2859 13.6494 16.1393 14.1298 16.0161 14.4495C15.8528 14.8731 15.6578 15.1753 15.3428 15.4928C15.0279 15.8104 14.7281 16.007 14.308 16.1716C13.9908 16.2959 13.5143 16.4437 12.6368 16.484C11.6879 16.5277 11.4033 16.5369 9.00002 16.5369C6.59671 16.5369 6.31212 16.5277 5.36321 16.484C4.48571 16.4437 4.00917 16.2959 3.69203 16.1716C3.27193 16.007 2.97212 15.8104 2.6572 15.4928C2.34228 15.1753 2.14721 14.8731 1.98395 14.4495C1.86069 14.1298 1.71408 13.6494 1.67406 12.7647C1.63076 11.8079 1.62158 11.5209 1.62158 9.09819C1.62158 6.67542 1.63076 6.38843 1.67406 5.43165C1.71408 4.54698 1.86069 4.06653 1.98395 3.7468C2.14721 3.32327 2.34224 3.02101 2.6572 2.70351C2.97212 2.38598 3.27193 2.18935 3.69203 2.02475C4.00917 1.90049 4.48571 1.75267 5.36321 1.71233C6.31223 1.66868 6.59689 1.65942 9.00002 1.65942ZM4.37842 9.09819C4.37842 6.52485 6.44755 4.43878 9.00002 4.43878C11.5524 4.43878 13.6216 6.52485 13.6216 9.09819C13.6216 11.6715 11.5524 13.7576 9.00002 13.7576C6.44755 13.7576 4.37842 11.6715 4.37842 9.09819ZM9.00002 12.1227C7.34314 12.1227 6 10.7686 6 9.09819C6 7.42774 7.34314 6.07361 9.00002 6.07361C10.6569 6.07361 12 7.42774 12 9.09819C12 10.7686 10.6569 12.1227 9.00002 12.1227ZM13.8041 5.34348C14.4006 5.34348 14.8842 4.85601 14.8842 4.25466C14.8842 3.6533 14.4006 3.1658 13.8041 3.1658C13.2077 3.1658 12.7241 3.6533 12.7241 4.25466C12.7241 4.85601 13.2077 5.34348 13.8041 5.34348Z" fill="#5446F5"/>
</svg>
