<svg width="18" height="17" viewBox="0 0 18 17" fill="none" xmlns="http://www.w3.org/2000/svg">
<path fill-rule="evenodd" clip-rule="evenodd" d="M2.11878 3.83496H2.09338C0.823382 3.83496 0 2.99727 0 1.93543C0 0.85294 0.847724 0.0328064 2.14312 0.0328064C3.43746 0.0328064 4.23333 0.850874 4.25873 1.93233C4.25873 2.99417 3.43746 3.83496 2.11878 3.83496ZM18.0001 16.1638H14.0218V10.4931C14.0218 9.00879 13.3995 7.99551 12.0311 7.99551C10.9844 7.99551 10.4023 8.6793 10.1314 9.33829C10.042 9.54656 10.0436 9.82689 10.0452 10.1158V10.1159C10.0455 10.1551 10.0457 10.1945 10.0457 10.2338V16.1638H6.10449C6.10449 16.1638 6.15529 6.1187 6.10449 5.20561H10.0457V6.92541C10.2785 6.17345 11.5379 5.10025 13.5477 5.10025C16.0411 5.10025 18.0001 6.67648 18.0001 10.0706V16.1638ZM3.9624 5.20569H0.454102V16.1638H3.9624V5.20569Z" fill="#5446F5"/>
</svg>
