<svg width="14" height="20" viewBox="0 0 14 20" fill="none" xmlns="http://www.w3.org/2000/svg">
<path fill-rule="evenodd" clip-rule="evenodd" d="M0 7.0737C0 3.17203 3.13 0.0164185 7 0.0164185C10.87 0.0164185 14 3.17203 14 7.0737C14 11.2778 9.58 17.0749 7.77 19.2828C7.37 19.7667 6.64 19.7667 6.24 19.2828C4.42 17.0749 0 11.2778 0 7.0737ZM4.5 7.07372C4.5 8.46501 5.62 9.59418 7 9.59418C8.38 9.59418 9.5 8.46501 9.5 7.07372C9.5 5.68243 8.38 4.55326 7 4.55326C5.62 4.55326 4.5 5.68243 4.5 7.07372Z" fill="#5446F5"/>
</svg>
