<svg width="18" height="19" viewBox="0 0 18 19" fill="none" xmlns="http://www.w3.org/2000/svg">
<path fill-rule="evenodd" clip-rule="evenodd" d="M16.23 12.3849L13.69 12.0925C13.08 12.022 12.48 12.2337 12.05 12.6672L10.21 14.5223C7.38003 13.0705 5.06003 10.7416 3.62004 7.87832L5.47003 6.01318C5.90003 5.57966 6.11003 4.97475 6.04003 4.35975L5.75003 1.81913C5.63003 0.800859 4.78003 0.0346375 3.76004 0.0346375H2.03004C0.900039 0.0346375 -0.0399592 0.982332 0.0300407 2.12158C0.56004 10.7315 7.39003 17.6073 15.92 18.1417C17.05 18.2122 17.99 17.2645 17.99 16.1253V14.3811C18 13.3629 17.24 12.5059 16.23 12.3849Z" fill="#5446F5"/>
</svg>
