<svg width="18" height="19" viewBox="0 0 18 19" fill="none" xmlns="http://www.w3.org/2000/svg">
<path d="M9.00053 0.183563C4.03034 0.183563 0 4.24581 0 9.25772C0 12.9721 2.21626 16.1647 5.38825 17.5679C5.36285 16.9351 5.38402 16.1732 5.54384 15.4839C5.71741 14.7477 6.70171 10.5403 6.70171 10.5403C6.70171 10.5403 6.41489 9.9609 6.41489 9.10407C6.41489 7.75959 7.18857 6.7555 8.15064 6.7555C8.96878 6.7555 9.36461 7.37545 9.36461 8.11812C9.36461 8.94721 8.83965 10.1882 8.56977 11.3374C8.34433 12.3009 9.04816 13.0852 9.99012 13.0852C11.6952 13.0852 12.8435 10.8775 12.8435 8.2611C12.8435 6.27319 11.5153 4.78466 9.09896 4.78466C6.36938 4.78466 4.66855 6.83659 4.66855 9.12861C4.66855 9.92035 4.89928 10.4774 5.26125 10.9084C5.42847 11.108 5.4507 11.1869 5.39037 11.4153C5.34803 11.5807 5.24854 11.984 5.20727 12.143C5.14694 12.3724 4.96278 12.4557 4.75745 12.3703C3.49903 11.8528 2.91374 10.4645 2.91374 8.90346C2.91374 6.32655 5.06968 3.23425 9.34556 3.23425C12.7821 3.23425 15.0439 5.74287 15.0439 8.43289C15.0439 11.9926 13.0817 14.6516 10.187 14.6516C9.21644 14.6516 8.30199 14.1224 7.98871 13.5216C7.98871 13.5216 7.46587 15.612 7.35579 16.0153C7.16528 16.7142 6.79167 17.4142 6.44981 17.9584C7.25948 18.1996 8.11466 18.3308 9.00053 18.3308C13.9707 18.3308 18 14.2686 18 9.25772C18 4.24581 13.9707 0.183563 9.00053 0.183563Z" fill="#5446F5"/>
</svg>
