<svg width="24" height="25" viewBox="0 0 24 25" fill="none" xmlns="http://www.w3.org/2000/svg">
<path d="M21 6.99022C20.3386 7.29387 19.6265 7.49922 18.8796 7.59098C19.6424 7.11911 20.2277 6.37089 20.5034 5.47958C19.7892 5.91649 19 6.23435 18.1569 6.40475C17.4849 5.66308 16.5246 5.19995 15.4617 5.19995C13.4237 5.19995 11.7702 6.90939 11.7702 9.01751C11.7702 9.3168 11.8019 9.60735 11.8653 9.88697C8.79609 9.7275 6.07554 8.20921 4.25304 5.89683C3.93502 6.46264 3.7533 7.11911 3.7533 7.81817C3.7533 9.14203 4.40518 10.3108 5.3962 10.9956C4.79186 10.9771 4.22134 10.8034 3.72266 10.5194V10.5664C3.72266 12.4167 4.99577 13.9601 6.68621 14.3097C6.37665 14.3992 6.05018 14.444 5.71315 14.444C5.47544 14.444 5.243 14.4211 5.01796 14.3763C5.48811 15.8924 6.85103 16.9967 8.46751 17.0262C7.20391 18.0508 5.61067 18.6613 3.88114 18.6613C3.5832 18.6613 3.28843 18.6439 3 18.6089C4.63444 19.6903 6.57633 20.3227 8.66086 20.3227C15.4543 20.3227 19.168 14.5063 19.168 9.46098C19.168 9.29495 19.1648 9.12892 19.1585 8.96617C19.8801 8.42767 20.5066 7.75591 21 6.99022Z" fill="#5446F5"/>
</svg>
