<svg width="18" height="19" viewBox="0 0 18 19" fill="none" xmlns="http://www.w3.org/2000/svg">
<path fill-rule="evenodd" clip-rule="evenodd" d="M17.9998 18.3308H14.5714C14.5714 10.23 8.03496 3.63997 0 3.63997V0.183563C9.92494 0.183563 17.9998 8.32455 17.9998 18.3308ZM0 15.7383C0 14.3066 1.15132 13.1459 2.57135 13.1459C3.99138 13.1459 5.1427 14.3066 5.1427 15.7383C5.1427 17.17 3.99138 18.3308 2.57135 18.3308C1.15132 18.3308 0 17.17 0 15.7383ZM8.57179 18.3308H12.0001C12.0001 11.6597 6.61688 6.23236 0 6.23236V9.68942C4.72625 9.68942 8.57179 13.5658 8.57179 18.3308Z" fill="#5446F5"/>
</svg>
