<svg width="18" height="14" viewBox="0 0 18 14" fill="none" xmlns="http://www.w3.org/2000/svg">
<path fill-rule="evenodd" clip-rule="evenodd" d="M17.1045 1.0268C17.6439 1.59223 17.82 2.87626 17.82 2.87626C17.82 2.87626 18 4.38448 18 5.89212V7.306C18 8.81422 17.82 10.3219 17.82 10.3219C17.82 10.3219 17.6439 11.6059 17.1045 12.1713C16.4878 12.8402 15.8039 12.9093 15.4174 12.9484C15.3749 12.9527 15.336 12.9566 15.3011 12.961C12.7822 13.1496 9 13.1555 9 13.1555C9 13.1555 4.32 13.1112 2.88 12.9679C2.81177 12.9548 2.72907 12.9445 2.63541 12.9329C2.17928 12.8762 1.46335 12.7873 0.894938 12.1713C0.3555 11.6059 0.18 10.3219 0.18 10.3219C0.18 10.3219 0 8.81422 0 7.306V5.89212C0 4.38448 0.18 2.87626 0.18 2.87626C0.18 2.87626 0.3555 1.59223 0.894938 1.0268C1.51305 0.356956 2.19754 0.288591 2.58411 0.249983C2.62602 0.245797 2.66443 0.241961 2.69887 0.237746C5.21775 0.0490723 8.99606 0.0490723 8.99606 0.0490723H9.00394C9.00394 0.0490723 12.7822 0.0490723 15.3011 0.237746C15.3356 0.241967 15.374 0.245808 15.4159 0.250002C15.8022 0.288614 16.487 0.357064 17.1045 1.0268ZM7.14111 3.78345L7.14168 9.01913L12.0045 6.41032L7.14111 3.78345Z" fill="#5446F5"/>
</svg>
